<?xml version="1.0" encoding="UTF-8"?>
<!DOCTYPE svg PUBLIC "-//W3C//DTD SVG 1.1//EN" "http://www.w3.org/Graphics/SVG/1.1/DTD/svg11.dtd">
<!-- Creator: CorelDRAW 2021 (64-Bit) -->
<svg xmlns="http://www.w3.org/2000/svg" xml:space="preserve" width="0.2in" height="0.2in" version="1.1" style="shape-rendering:geometricPrecision; text-rendering:geometricPrecision; image-rendering:optimizeQuality; fill-rule:evenodd; clip-rule:evenodd"
viewBox="0 0 200 200"
 xmlns:xlink="http://www.w3.org/1999/xlink"
 xmlns:xodm="http://www.corel.com/coreldraw/odm/2003">
 <defs>
  <style type="text/css">
   <![CDATA[
    .fil0 {fill:#373435}
   ]]>
  </style>
 </defs>
 <g id="Layer_x0020_1">
  <metadata id="CorelCorpID_0Corel-Layer"/>
  <g>
   <path id="like-button.svg" class="fil0" d="M104.93 181.6l-79.54 -76.36c-6.35,-6.09 -10.57,-13.17 -12.69,-21.24 -2.06,-8.07 -2.04,-16.09 0.07,-24.07 2.12,-8.02 6.32,-15 12.61,-20.95 6.45,-6.09 13.8,-10.13 22.05,-12.11 8.31,-2.03 16.58,-2.03 24.84,0 8.3,2.03 15.68,6.07 22.13,12.11l10.52 9.81 10.52 -9.81c6.5,-6.04 13.88,-10.07 22.13,-12.11 8.26,-2.03 16.51,-2.03 24.76,0 8.31,1.98 15.68,6.02 22.13,12.11 6.3,5.94 10.5,12.93 12.61,20.95 2.11,7.97 2.11,16 0,24.07 -2.07,8.07 -6.27,15.15 -12.61,21.24l-79.54 76.36z"/>
  </g>
 </g>
</svg>
